<svg width="100" height="100" viewBox="0 0 100 100" fill="none" xmlns="http://www.w3.org/2000/svg">
  <!-- Background Circle -->
  <circle cx="50" cy="50" r="48" fill="url(#gradient)" stroke="#5865f2" stroke-width="2" opacity="0.1"/>
  
  <!-- Quill Pen -->
  <path d="M25 75 L35 65 L65 35 L70 30 C72 28 75 28 77 30 C79 32 79 35 77 37 L72 42 L42 72 L32 82 L25 75 Z" fill="#5865f2" opacity="0.8"/>
  
  <!-- Feather Detail -->
  <path d="M65 35 L70 30 L75 25 C76 24 77 24 78 25 C79 26 79 27 78 28 L73 33 L68 38" stroke="#5865f2" stroke-width="1.5" fill="none" opacity="0.6"/>
  
  <!-- Poetry Lines -->
  <path d="M20 25 L45 25" stroke="#5865f2" stroke-width="2" stroke-linecap="round" opacity="0.7"/>
  <path d="M20 35 L40 35" stroke="#5865f2" stroke-width="2" stroke-linecap="round" opacity="0.5"/>
  <path d="M20 45 L35 45" stroke="#5865f2" stroke-width="2" stroke-linecap="round" opacity="0.3"/>
  
  <!-- AI Sparkles -->
  <circle cx="75" cy="20" r="2" fill="#5865f2" opacity="0.8"/>
  <circle cx="85" cy="25" r="1.5" fill="#5865f2" opacity="0.6"/>
  <circle cx="80" cy="15" r="1" fill="#5865f2" opacity="0.4"/>
  
  <!-- Gradient Definition -->
  <defs>
    <linearGradient id="gradient" x1="0%" y1="0%" x2="100%" y2="100%">
      <stop offset="0%" stop-color="#5865f2" stop-opacity="0.1"/>
      <stop offset="100%" stop-color="#5865f2" stop-opacity="0.05"/>
    </linearGradient>
  </defs>
</svg>